<svg viewBox="-143 145 512 512">
	<path
		d="M113 145c-141.4 0-256 114.6-256 256s114.6 256 256 256 256-114.6 256-256-114.6-256-256-256zm159.8 415.7c-20.8 20.8-44.9 37.1-71.8 48.4-27.8 11.8-57.4 17.7-88 17.7-30.5 0-60.1-6-88-17.7-26.9-11.4-51.1-27.7-71.8-48.4-20.8-20.8-37.1-44.9-48.4-71.8C-107 461.1-113 431.5-113 401s6-60.1 17.7-88c11.4-26.9 27.7-51.1 48.4-71.8 20.9-20.8 45-37.1 71.9-48.5C52.9 181 82.5 175 113 175s60.1 6 88 17.7c26.9 11.4 51.1 27.7 71.8 48.4 20.8 20.8 37.1 44.9 48.4 71.8 11.8 27.8 17.7 57.4 17.7 88 0 30.5-6 60.1-17.7 88-11.4 26.9-27.7 51.1-48.4 71.8z" />
	<path
		d="M191.6 273h-157c-27.3 0-49.5 22.2-49.5 49.5v157.1c0 27.3 22.2 49.5 49.5 49.5h157c27.3 0 49.5-22.2 49.5-49.5V322.4c-.1-27.2-22.3-49.4-49.5-49.4zm14.2 29.5h5.7v43.4l-43.3.1-.1-43.4 37.7-.1zM76.5 374.7c8.2-11.3 21.5-18.8 36.5-18.8s28.3 7.4 36.5 18.8c5.4 7.4 8.5 16.5 8.5 26.3 0 24.8-20.2 45.1-45.1 45.1C88 446.1 68 425.8 68 401c0-9.8 3.2-18.9 8.5-26.3zm139.6 104.8c0 13.5-11 24.5-24.5 24.5h-157c-13.5 0-24.5-11-24.5-24.5V374.7h38.2c-3.3 8.1-5.2 17-5.2 26.3 0 38.6 31.4 70 70 70s70-31.4 70-70c0-9.3-1.9-18.2-5.2-26.3h38.2v104.8z" />
</svg>